<mxfile host="Electron" agent="Mozilla/5.0 (Windows NT 10.0; Win64; x64) AppleWebKit/537.36 (KHTML, like Gecko) draw.io/25.0.1 Chrome/128.0.6613.186 Electron/32.2.6 Safari/537.36" version="25.0.1">
  <diagram name="Page-1" id="YE2b3-Wm6ofZwqIOuOVP">
    <mxGraphModel dx="1500" dy="899" grid="1" gridSize="10" guides="1" tooltips="1" connect="1" arrows="1" fold="1" page="1" pageScale="1" pageWidth="850" pageHeight="1100" math="0" shadow="0">
      <root>
        <mxCell id="0" />
        <mxCell id="1" parent="0" />
        <mxCell id="dfRw2eh3CHr02bBg0ckn-13" style="rounded=0;orthogonalLoop=1;jettySize=auto;html=1;entryX=0;entryY=0.5;entryDx=0;entryDy=0;endArrow=none;endFill=0;" parent="1" source="dfRw2eh3CHr02bBg0ckn-1" target="dfRw2eh3CHr02bBg0ckn-11" edge="1">
          <mxGeometry relative="1" as="geometry" />
        </mxCell>
        <mxCell id="dfRw2eh3CHr02bBg0ckn-19" style="rounded=0;orthogonalLoop=1;jettySize=auto;html=1;entryX=0;entryY=0.5;entryDx=0;entryDy=0;endArrow=none;endFill=0;" parent="1" source="dfRw2eh3CHr02bBg0ckn-1" target="dfRw2eh3CHr02bBg0ckn-7" edge="1">
          <mxGeometry relative="1" as="geometry" />
        </mxCell>
        <mxCell id="dfRw2eh3CHr02bBg0ckn-1" value="Cliente" style="shape=umlActor;verticalLabelPosition=bottom;verticalAlign=top;html=1;outlineConnect=0;" parent="1" vertex="1">
          <mxGeometry x="170" y="150" width="30" height="60" as="geometry" />
        </mxCell>
        <mxCell id="dfRw2eh3CHr02bBg0ckn-20" style="rounded=0;orthogonalLoop=1;jettySize=auto;html=1;entryX=0;entryY=0.5;entryDx=0;entryDy=0;endArrow=none;endFill=0;" parent="1" source="dfRw2eh3CHr02bBg0ckn-4" target="dfRw2eh3CHr02bBg0ckn-7" edge="1">
          <mxGeometry relative="1" as="geometry" />
        </mxCell>
        <mxCell id="dfRw2eh3CHr02bBg0ckn-27" style="rounded=0;orthogonalLoop=1;jettySize=auto;html=1;entryX=0;entryY=0.5;entryDx=0;entryDy=0;endArrow=none;endFill=0;" parent="1" source="dfRw2eh3CHr02bBg0ckn-4" target="dfRw2eh3CHr02bBg0ckn-26" edge="1">
          <mxGeometry relative="1" as="geometry" />
        </mxCell>
        <mxCell id="dfRw2eh3CHr02bBg0ckn-31" style="rounded=0;orthogonalLoop=1;jettySize=auto;html=1;entryX=0;entryY=0.5;entryDx=0;entryDy=0;endArrow=none;endFill=0;" parent="1" source="dfRw2eh3CHr02bBg0ckn-4" target="dfRw2eh3CHr02bBg0ckn-30" edge="1">
          <mxGeometry relative="1" as="geometry" />
        </mxCell>
        <mxCell id="dfRw2eh3CHr02bBg0ckn-4" value="Técnico comercial" style="shape=umlActor;verticalLabelPosition=bottom;verticalAlign=top;html=1;outlineConnect=0;" parent="1" vertex="1">
          <mxGeometry x="170" y="270" width="30" height="60" as="geometry" />
        </mxCell>
        <mxCell id="dfRw2eh3CHr02bBg0ckn-21" style="rounded=0;orthogonalLoop=1;jettySize=auto;html=1;entryX=0;entryY=0.5;entryDx=0;entryDy=0;endArrow=none;endFill=0;" parent="1" target="dfRw2eh3CHr02bBg0ckn-7" edge="1">
          <mxGeometry relative="1" as="geometry">
            <mxPoint x="200" y="460" as="sourcePoint" />
            <Array as="points" />
          </mxGeometry>
        </mxCell>
        <mxCell id="dfRw2eh3CHr02bBg0ckn-23" style="rounded=0;orthogonalLoop=1;jettySize=auto;html=1;entryX=0;entryY=0.5;entryDx=0;entryDy=0;endArrow=none;endFill=0;" parent="1" source="dfRw2eh3CHr02bBg0ckn-5" target="dfRw2eh3CHr02bBg0ckn-22" edge="1">
          <mxGeometry relative="1" as="geometry" />
        </mxCell>
        <mxCell id="dfRw2eh3CHr02bBg0ckn-5" value="Agente de aseguradora" style="shape=umlActor;verticalLabelPosition=bottom;verticalAlign=top;html=1;outlineConnect=0;" parent="1" vertex="1">
          <mxGeometry x="170" y="430" width="30" height="60" as="geometry" />
        </mxCell>
        <mxCell id="dfRw2eh3CHr02bBg0ckn-7" value="Iniciar Sesión" style="ellipse;whiteSpace=wrap;html=1;" parent="1" vertex="1">
          <mxGeometry x="365" y="40" width="120" height="80" as="geometry" />
        </mxCell>
        <mxCell id="9zmTywW3ll3mTt1JfgpB-10" style="rounded=0;orthogonalLoop=1;jettySize=auto;html=1;dashed=1;" parent="1" source="dfRw2eh3CHr02bBg0ckn-11" target="9zmTywW3ll3mTt1JfgpB-7" edge="1">
          <mxGeometry relative="1" as="geometry" />
        </mxCell>
        <mxCell id="9zmTywW3ll3mTt1JfgpB-14" value="&amp;lt;&amp;lt;include&amp;gt;&amp;gt;" style="edgeLabel;html=1;align=center;verticalAlign=middle;resizable=0;points=[];" parent="9zmTywW3ll3mTt1JfgpB-10" vertex="1" connectable="0">
          <mxGeometry x="-0.0915" y="-2" relative="1" as="geometry">
            <mxPoint y="-26" as="offset" />
          </mxGeometry>
        </mxCell>
        <mxCell id="dfRw2eh3CHr02bBg0ckn-11" value="Consultar ofertas personalzadas" style="ellipse;whiteSpace=wrap;html=1;" parent="1" vertex="1">
          <mxGeometry x="365" y="140" width="120" height="80" as="geometry" />
        </mxCell>
        <mxCell id="9zmTywW3ll3mTt1JfgpB-13" style="edgeStyle=orthogonalEdgeStyle;rounded=0;orthogonalLoop=1;jettySize=auto;html=1;dashed=1;" parent="1" source="dfRw2eh3CHr02bBg0ckn-22" target="9zmTywW3ll3mTt1JfgpB-9" edge="1">
          <mxGeometry relative="1" as="geometry" />
        </mxCell>
        <mxCell id="9zmTywW3ll3mTt1JfgpB-18" value="&amp;lt;&amp;lt;include&amp;gt;&amp;gt;" style="edgeLabel;html=1;align=center;verticalAlign=middle;resizable=0;points=[];" parent="9zmTywW3ll3mTt1JfgpB-13" vertex="1" connectable="0">
          <mxGeometry x="-0.1054" y="4" relative="1" as="geometry">
            <mxPoint y="-6" as="offset" />
          </mxGeometry>
        </mxCell>
        <mxCell id="dfRw2eh3CHr02bBg0ckn-22" value="&lt;div&gt;Consultar ofertas de la aseguradora&lt;/div&gt;" style="ellipse;whiteSpace=wrap;html=1;" parent="1" vertex="1">
          <mxGeometry x="365" y="440" width="120" height="80" as="geometry" />
        </mxCell>
        <mxCell id="9zmTywW3ll3mTt1JfgpB-11" style="rounded=0;orthogonalLoop=1;jettySize=auto;html=1;dashed=1;" parent="1" source="dfRw2eh3CHr02bBg0ckn-26" target="9zmTywW3ll3mTt1JfgpB-8" edge="1">
          <mxGeometry relative="1" as="geometry" />
        </mxCell>
        <mxCell id="9zmTywW3ll3mTt1JfgpB-16" value="&amp;lt;&amp;lt;include&amp;gt;&amp;gt;" style="edgeLabel;html=1;align=center;verticalAlign=middle;resizable=0;points=[];" parent="9zmTywW3ll3mTt1JfgpB-11" vertex="1" connectable="0">
          <mxGeometry x="-0.1332" y="1" relative="1" as="geometry">
            <mxPoint x="1" y="-23" as="offset" />
          </mxGeometry>
        </mxCell>
        <mxCell id="dfRw2eh3CHr02bBg0ckn-26" value="Registrar nuevo cliente" style="ellipse;whiteSpace=wrap;html=1;" parent="1" vertex="1">
          <mxGeometry x="365" y="240" width="120" height="80" as="geometry" />
        </mxCell>
        <mxCell id="dfRw2eh3CHr02bBg0ckn-37" style="rounded=0;orthogonalLoop=1;jettySize=auto;html=1;dashed=1;exitX=1;exitY=0.5;exitDx=0;exitDy=0;" parent="1" source="dfRw2eh3CHr02bBg0ckn-39" target="dfRw2eh3CHr02bBg0ckn-36" edge="1">
          <mxGeometry relative="1" as="geometry">
            <mxPoint x="1030" y="250" as="sourcePoint" />
          </mxGeometry>
        </mxCell>
        <mxCell id="dfRw2eh3CHr02bBg0ckn-38" value="&amp;lt;&amp;lt;include&amp;gt;&amp;gt;" style="edgeLabel;html=1;align=center;verticalAlign=middle;resizable=0;points=[];" parent="dfRw2eh3CHr02bBg0ckn-37" vertex="1" connectable="0">
          <mxGeometry x="0.4621" y="2" relative="1" as="geometry">
            <mxPoint x="-19" y="-28" as="offset" />
          </mxGeometry>
        </mxCell>
        <mxCell id="9zmTywW3ll3mTt1JfgpB-12" style="rounded=0;orthogonalLoop=1;jettySize=auto;html=1;dashed=1;" parent="1" source="dfRw2eh3CHr02bBg0ckn-30" target="9zmTywW3ll3mTt1JfgpB-6" edge="1">
          <mxGeometry relative="1" as="geometry" />
        </mxCell>
        <mxCell id="9zmTywW3ll3mTt1JfgpB-17" value="&amp;lt;&amp;lt;include&amp;gt;&amp;gt;" style="edgeLabel;html=1;align=center;verticalAlign=middle;resizable=0;points=[];" parent="9zmTywW3ll3mTt1JfgpB-12" vertex="1" connectable="0">
          <mxGeometry x="-0.175" relative="1" as="geometry">
            <mxPoint x="5" y="-25" as="offset" />
          </mxGeometry>
        </mxCell>
        <mxCell id="dfRw2eh3CHr02bBg0ckn-30" value="Ofrecer oferta más ventajosa" style="ellipse;whiteSpace=wrap;html=1;" parent="1" vertex="1">
          <mxGeometry x="365" y="340" width="120" height="80" as="geometry" />
        </mxCell>
        <mxCell id="dfRw2eh3CHr02bBg0ckn-39" value="Seleccionar oferta más ventajosa" style="ellipse;whiteSpace=wrap;html=1;" parent="1" vertex="1">
          <mxGeometry x="610" y="340" width="120" height="80" as="geometry" />
        </mxCell>
        <mxCell id="dfRw2eh3CHr02bBg0ckn-40" style="rounded=0;orthogonalLoop=1;jettySize=auto;html=1;dashed=1;entryX=0;entryY=0.5;entryDx=0;entryDy=0;" parent="1" source="dfRw2eh3CHr02bBg0ckn-30" target="dfRw2eh3CHr02bBg0ckn-39" edge="1">
          <mxGeometry relative="1" as="geometry">
            <mxPoint x="580" y="279.5" as="sourcePoint" />
            <mxPoint x="710" y="279.5" as="targetPoint" />
          </mxGeometry>
        </mxCell>
        <mxCell id="dfRw2eh3CHr02bBg0ckn-41" value="&amp;lt;&amp;lt;include&amp;gt;&amp;gt;" style="edgeLabel;html=1;align=center;verticalAlign=middle;resizable=0;points=[];" parent="dfRw2eh3CHr02bBg0ckn-40" vertex="1" connectable="0">
          <mxGeometry x="0.4621" y="2" relative="1" as="geometry">
            <mxPoint x="-35" y="-8" as="offset" />
          </mxGeometry>
        </mxCell>
        <mxCell id="9zmTywW3ll3mTt1JfgpB-6" value="Iniciar Sesión" style="ellipse;whiteSpace=wrap;html=1;" parent="1" vertex="1">
          <mxGeometry x="610" y="240" width="120" height="80" as="geometry" />
        </mxCell>
        <mxCell id="9zmTywW3ll3mTt1JfgpB-7" value="Iniciar Sesión" style="ellipse;whiteSpace=wrap;html=1;" parent="1" vertex="1">
          <mxGeometry x="610" y="40" width="120" height="80" as="geometry" />
        </mxCell>
        <mxCell id="9zmTywW3ll3mTt1JfgpB-8" value="Iniciar Sesión" style="ellipse;whiteSpace=wrap;html=1;" parent="1" vertex="1">
          <mxGeometry x="610" y="140" width="120" height="80" as="geometry" />
        </mxCell>
        <mxCell id="9zmTywW3ll3mTt1JfgpB-9" value="Iniciar Sesión" style="ellipse;whiteSpace=wrap;html=1;" parent="1" vertex="1">
          <mxGeometry x="610" y="440" width="120" height="80" as="geometry" />
        </mxCell>
        <mxCell id="H0dSDDvsGZ2K1ZwTSEk--6" value="UPNA Direct - Software de correduría" style="swimlane;whiteSpace=wrap;html=1;" vertex="1" parent="1">
          <mxGeometry x="300" width="680" height="540" as="geometry" />
        </mxCell>
        <mxCell id="H0dSDDvsGZ2K1ZwTSEk--8" value="Registrar datos del bien" style="ellipse;whiteSpace=wrap;html=1;" vertex="1" parent="H0dSDDvsGZ2K1ZwTSEk--6">
          <mxGeometry x="480" y="240" width="120" height="80" as="geometry" />
        </mxCell>
        <mxCell id="dfRw2eh3CHr02bBg0ckn-36" value="Calcular lista de ofertas" style="ellipse;whiteSpace=wrap;html=1;" parent="H0dSDDvsGZ2K1ZwTSEk--6" vertex="1">
          <mxGeometry x="530" y="400" width="120" height="80" as="geometry" />
        </mxCell>
        <mxCell id="H0dSDDvsGZ2K1ZwTSEk--9" style="rounded=0;orthogonalLoop=1;jettySize=auto;html=1;dashed=1;" edge="1" parent="H0dSDDvsGZ2K1ZwTSEk--6" source="dfRw2eh3CHr02bBg0ckn-36" target="H0dSDDvsGZ2K1ZwTSEk--8">
          <mxGeometry relative="1" as="geometry" />
        </mxCell>
        <mxCell id="H0dSDDvsGZ2K1ZwTSEk--10" value="&amp;lt;&amp;lt;include&amp;gt;&amp;gt;" style="edgeLabel;html=1;align=center;verticalAlign=middle;resizable=0;points=[];" vertex="1" connectable="0" parent="H0dSDDvsGZ2K1ZwTSEk--9">
          <mxGeometry x="0.2232" y="-1" relative="1" as="geometry">
            <mxPoint x="47" y="9" as="offset" />
          </mxGeometry>
        </mxCell>
      </root>
    </mxGraphModel>
  </diagram>
</mxfile>
